REM DIRINDEX 1\2\6,1\2\7,1\2\8,1\3\9,1\3\10,1\3\11,1\4\12,1\4\13,1\4\14,1\5\15,1\5\16,1\5\17,1\5\18
REM DIRNAME folder01,folder02,folder03,folder04,folder05,folder06,folder07,folder08,folder09,folder10,folder11,folder12,folder13,folder14,folder15,folder16,folder17,folder18
TITLE ""
FILE "" MP3
  TRACK 01 AUDIO
    TITLE "16:cjc019_5693"
    INDEX 01 00:00:00
  TRACK 02 AUDIO
    TITLE "0:"
    INDEX 01 00:01:28
  TRACK 03 AUDIO
    TITLE "18:cjc019_5694"
    INDEX 01 00:02:10
  TRACK 04 AUDIO
    TITLE "0:"
    INDEX 01 00:03:35
  TRACK 05 AUDIO
    TITLE "17:cjc019_5695"
    INDEX 01 00:04:19
  TRACK 06 AUDIO
    TITLE "0:"
    INDEX 01 00:05:54
  TRACK 07 AUDIO
    TITLE "16:cjc019_5696"
    INDEX 01 00:07:39
  TRACK 08 AUDIO
    TITLE "0:"
    INDEX 01 00:08:48
  TRACK 09 AUDIO
    TITLE "18:cjc019_5697"
    INDEX 01 00:09:26
  TRACK 10 AUDIO
    TITLE "0:"
    INDEX 01 00:10:66
  TRACK 11 AUDIO
    TITLE "17:cjc019_5698"
    INDEX 01 00:11:42
  TRACK 12 AUDIO
    TITLE "0:"
    INDEX 01 00:12:54
  TRACK 13 AUDIO
    TITLE "16:cjc019_5699"
    INDEX 01 00:14:41
  TRACK 14 AUDIO
    TITLE "0:"
    INDEX 01 00:16:08
  TRACK 15 AUDIO
    TITLE "18:cjc019_5700"
    INDEX 01 00:16:73
  TRACK 16 AUDIO
    TITLE "0:"
    INDEX 01 00:18:35
  TRACK 17 AUDIO
    TITLE "17:cjc019_5701"
    INDEX 01 00:19:15
  TRACK 18 AUDIO
    TITLE "0:"
    INDEX 01 00:20:55
  TRACK 19 AUDIO
    TITLE "16:cjc019_5702"
    INDEX 01 00:22:46
  TRACK 20 AUDIO
    TITLE "0:"
    INDEX 01 00:23:63
  TRACK 21 AUDIO
    TITLE "18:cjc019_5703"
    INDEX 01 00:24:41
  TRACK 22 AUDIO
    TITLE "0:"
    INDEX 01 00:25:64
  TRACK 23 AUDIO
    TITLE "17:cjc019_5704"
    INDEX 01 00:26:40
  TRACK 24 AUDIO
    TITLE "0:"
    INDEX 01 00:27:59
  TRACK 25 AUDIO
    TITLE "16:cjc019_5705"
    INDEX 01 00:29:42
  TRACK 26 AUDIO
    TITLE "0:"
    INDEX 01 00:30:48
  TRACK 27 AUDIO
    TITLE "18:cjc019_5706"
    INDEX 01 00:31:33
  TRACK 28 AUDIO
    TITLE "0:"
    INDEX 01 00:35:68
  TRACK 29 AUDIO
    TITLE "17:cjc019_5707"
    INDEX 01 00:36:42
  TRACK 30 AUDIO
    TITLE "0:"
    INDEX 01 00:37:59
  TRACK 31 AUDIO
    TITLE "16:cjc019_5708"
    INDEX 01 00:39:47
  TRACK 32 AUDIO
    TITLE "0:"
    INDEX 01 00:40:68
  TRACK 33 AUDIO
    TITLE "18:cjc019_5709"
    INDEX 01 00:41:44
  TRACK 34 AUDIO
    TITLE "0:"
    INDEX 01 00:43:13
  TRACK 35 AUDIO
    TITLE "17:cjc019_5710"
    INDEX 01 00:43:68
  TRACK 36 AUDIO
    TITLE "0:"
    INDEX 01 00:45:18
  TRACK 37 AUDIO
    TITLE "16:cjc019_5711"
    INDEX 01 00:47:03
  TRACK 38 AUDIO
    TITLE "0:"
    INDEX 01 00:48:14
  TRACK 39 AUDIO
    TITLE "18:cjc019_5712"
    INDEX 01 00:48:67
  TRACK 40 AUDIO
    TITLE "0:"
    INDEX 01 00:52:41
  TRACK 41 AUDIO
    TITLE "17:cjc019_5713"
    INDEX 01 00:53:17
  TRACK 42 AUDIO
    TITLE "0:"
    INDEX 01 00:54:29
  TRACK 43 AUDIO
    TITLE "16:cjc019_5714"
    INDEX 01 00:56:14
  TRACK 44 AUDIO
    TITLE "0:"
    INDEX 01 00:57:37
  TRACK 45 AUDIO
    TITLE "18:cjc019_5715"
    INDEX 01 00:58:18
  TRACK 46 AUDIO
    TITLE "0:"
    INDEX 01 01:01:23
  TRACK 47 AUDIO
    TITLE "17:cjc019_5716"
    INDEX 01 01:02:01
  TRACK 48 AUDIO
    TITLE "0:"
    INDEX 01 01:03:26
  TRACK 49 AUDIO
    TITLE "16:cjc019_5717"
    INDEX 01 01:05:11
  TRACK 50 AUDIO
    TITLE "0:"
    INDEX 01 01:06:30
  TRACK 51 AUDIO
    TITLE "18:cjc019_5718"
    INDEX 01 01:07:12
  TRACK 52 AUDIO
    TITLE "0:"
    INDEX 01 01:08:56
  TRACK 53 AUDIO
    TITLE "17:cjc019_5719"
    INDEX 01 01:09:32
  TRACK 54 AUDIO
    TITLE "0:"
    INDEX 01 01:10:57
  TRACK 55 AUDIO
    TITLE "16:cjc019_5720"
    INDEX 01 01:12:34
  TRACK 56 AUDIO
    TITLE "0:"
    INDEX 01 01:13:57
  TRACK 57 AUDIO
    TITLE "18:cjc019_5721"
    INDEX 01 01:14:29
  TRACK 58 AUDIO
    TITLE "0:"
    INDEX 01 01:19:30
  TRACK 59 AUDIO
    TITLE "17:cjc019_5722"
    INDEX 01 01:20:06
  TRACK 60 AUDIO
    TITLE "0:"
    INDEX 01 01:21:33
  TRACK 61 AUDIO
    TITLE "16:cjc019_5723"
    INDEX 01 01:23:05
  TRACK 62 AUDIO
    TITLE "0:"
    INDEX 01 01:24:14
  TRACK 63 AUDIO
    TITLE "18:cjc019_5724"
    INDEX 01 01:24:73
  TRACK 64 AUDIO
    TITLE "0:"
    INDEX 01 01:27:34
  TRACK 65 AUDIO
    TITLE "17:cjc019_5725"
    INDEX 01 01:28:10
  TRACK 66 AUDIO
    TITLE "0:"
    INDEX 01 01:29:23
  TRACK 67 AUDIO
    TITLE "16:cjc019_5726"
    INDEX 01 01:31:04
  TRACK 68 AUDIO
    TITLE "0:"
    INDEX 01 01:32:25
  TRACK 69 AUDIO
    TITLE "18:cjc019_5727"
    INDEX 01 01:33:05
  TRACK 70 AUDIO
    TITLE "0:"
    INDEX 01 01:36:29
  TRACK 71 AUDIO
    TITLE "17:cjc019_5728"
    INDEX 01 01:36:74
  TRACK 72 AUDIO
    TITLE "0:"
    INDEX 01 01:38:16
  TRACK 73 AUDIO
    TITLE "16:cjc019_5729"
    INDEX 01 01:39:70
  TRACK 74 AUDIO
    TITLE "0:"
    INDEX 01 01:40:72
  TRACK 75 AUDIO
    TITLE "18:cjc019_5730"
    INDEX 01 01:41:52
  TRACK 76 AUDIO
    TITLE "0:"
    INDEX 01 01:46:21
  TRACK 77 AUDIO
    TITLE "17:cjc019_5731"
    INDEX 01 01:46:70
  TRACK 78 AUDIO
    TITLE "0:"
    INDEX 01 01:47:70
  TRACK 79 AUDIO
    TITLE "16:cjc019_5732"
    INDEX 01 01:49:57
  TRACK 80 AUDIO
    TITLE "0:"
    INDEX 01 01:51:01
  TRACK 81 AUDIO
    TITLE "18:cjc019_5733"
    INDEX 01 01:51:58
  TRACK 82 AUDIO
    TITLE "0:"
    INDEX 01 01:55:58
  TRACK 83 AUDIO
    TITLE "17:cjc019_5734"
    INDEX 01 01:56:34
  TRACK 84 AUDIO
    TITLE "0:"
    INDEX 01 01:57:47
  TRACK 85 AUDIO
    TITLE "16:cjc019_5735"
    INDEX 01 01:59:26
  TRACK 86 AUDIO
    TITLE "0:"
    INDEX 01 02:00:55
  TRACK 87 AUDIO
    TITLE "18:cjc019_5736"
    INDEX 01 02:01:33
  TRACK 88 AUDIO
    TITLE "0:"
    INDEX 01 02:05:62
  TRACK 89 AUDIO
    TITLE "17:cjc019_5737"
    INDEX 01 02:06:38
  TRACK 90 AUDIO
    TITLE "0:"
    INDEX 01 02:07:65
  TRACK 91 AUDIO
    TITLE "16:cjc019_5738"
    INDEX 01 02:09:50
  TRACK 92 AUDIO
    TITLE "0:"
    INDEX 01 02:10:59
  TRACK 93 AUDIO
    TITLE "18:cjc019_5739"
    INDEX 01 02:11:43
  TRACK 94 AUDIO
    TITLE "0:"
    INDEX 01 02:15:60
  TRACK 95 AUDIO
    TITLE "17:cjc019_5740"
    INDEX 01 02:16:32
  TRACK 96 AUDIO
    TITLE "0:"
    INDEX 01 02:17:45
  TRACK 97 AUDIO
    TITLE "16:cjc019_5741"
    INDEX 01 02:19:27
  TRACK 98 AUDIO
    TITLE "0:"
    INDEX 01 02:20:52
  TRACK 99 AUDIO
    TITLE "18:cjc019_5742"
    INDEX 01 02:21:35
  TRACK 100 AUDIO
    TITLE "0:"
    INDEX 01 02:29:25
  TRACK 101 AUDIO
    TITLE "17:cjc019_5743"
    INDEX 01 02:29:70
  TRACK 102 AUDIO
    TITLE "0:"
    INDEX 01 02:31:22
  TRACK 103 AUDIO
    TITLE "16:cjc019_5744"
    INDEX 01 02:33:03
  TRACK 104 AUDIO
    TITLE "0:"
    INDEX 01 02:34:22
  TRACK 105 AUDIO
    TITLE "18:cjc019_5745"
    INDEX 01 02:35:06
  TRACK 106 AUDIO
    TITLE "0:"
    INDEX 01 02:38:30
  TRACK 107 AUDIO
    TITLE "17:cjc019_5746"
    INDEX 01 02:39:10
  TRACK 108 AUDIO
    TITLE "0:"
    INDEX 01 02:40:31
